<?xml version="1.0" encoding="UTF-8" standalone="no"?>
<!DOCTYPE svg PUBLIC "-//W3C//DTD SVG 1.1//EN" "http://www.w3.org/Graphics/SVG/1.1/DTD/svg11.dtd">
<svg width="100%" height="100%" viewBox="0 0 50 50" version="1.1" xmlns="http://www.w3.org/2000/svg" xmlns:xlink="http://www.w3.org/1999/xlink" xml:space="preserve" xmlns:serif="http://www.serif.com/" style="fill-rule:evenodd;clip-rule:evenodd;stroke-linejoin:round;stroke-miterlimit:2;">
    <circle cx="25" cy="25" r="25" style="fill-opacity:0.1;"/>
    <g transform="matrix(0.862015,0,0,0.862015,6.03566,-0.136434)">
        <path d="M18.5,38.5C11.049,38.5 5,32.451 5,25C5,17.549 11.049,11.5 18.5,11.5C24.797,11.5 30.094,15.821 31.583,21.658C32.888,20.921 34.395,20.5 36,20.5C40.967,20.5 45,24.533 45,29.5C45,34.467 40.967,38.5 36,38.5L18.5,38.5Z" style="fill:rgb(13,69,104);"/>
    </g>
    <g transform="matrix(0.862015,0,0,0.862015,0.863566,5.03566)">
        <path d="M18.5,38.5C11.049,38.5 5,32.451 5,25C5,17.549 11.049,11.5 18.5,11.5C24.797,11.5 30.094,15.821 31.583,21.658C32.888,20.921 34.395,20.5 36,20.5C40.967,20.5 45,24.533 45,29.5C45,34.467 40.967,38.5 36,38.5L18.5,38.5Z" style="fill:rgb(255,193,87);"/>
    </g>
</svg>
