<?xml version="1.0" encoding="UTF-8" standalone="no"?>
<!DOCTYPE svg PUBLIC "-//W3C//DTD SVG 1.1//EN" "http://www.w3.org/Graphics/SVG/1.1/DTD/svg11.dtd">
<svg width="100%" height="100%" viewBox="0 0 50 50" version="1.1" xmlns="http://www.w3.org/2000/svg" xmlns:xlink="http://www.w3.org/1999/xlink" xml:space="preserve" xmlns:serif="http://www.serif.com/" style="fill-rule:evenodd;clip-rule:evenodd;stroke-linecap:round;stroke-linejoin:round;stroke-miterlimit:1.5;">
    <circle cx="25" cy="25" r="25" style="fill-opacity:0.1;"/>
    <g transform="matrix(0.822222,0,0,0.822222,5.26667,6.67778)">
        <path d="M24,1C24,1 10.743,4.083 7,5C5,12.51 3.772,33.716 24,46" style="fill:rgb(255,208,128);"/>
    </g>
    <g transform="matrix(-0.822222,0,0,0.822222,44.7333,6.67778)">
        <path d="M24,1C24,1 10.743,4.083 7,5C5,12.51 3.772,33.716 24,46" style="fill:rgb(255,193,87);"/>
    </g>
    <g transform="matrix(0.623654,0,0,0.649895,7.53769,10.3535)">
        <path d="M38,19.324C38,18.041 36.915,17 35.578,17L20.422,17C19.085,17 18,18.041 18,19.324L18,30.676C18,31.959 19.085,33 20.422,33L35.578,33C36.915,33 38,31.959 38,30.676L38,19.324Z" style="fill:rgb(13,69,104);"/>
    </g>
    <g transform="matrix(0.535408,0,0,0.535408,11.6148,11.4182)">
        <circle cx="25" cy="18.646" r="6.354" style="fill:none;stroke:rgb(13,69,104);stroke-width:4.89px;"/>
    </g>
</svg>
