<?xml version="1.0" encoding="UTF-8" standalone="no"?>
<!DOCTYPE svg PUBLIC "-//W3C//DTD SVG 1.1//EN" "http://www.w3.org/Graphics/SVG/1.1/DTD/svg11.dtd">
<svg width="100%" height="100%" viewBox="0 0 72 72" version="1.1" xmlns="http://www.w3.org/2000/svg" xmlns:xlink="http://www.w3.org/1999/xlink" xml:space="preserve" xmlns:serif="http://www.serif.com/" style="fill-rule:evenodd;clip-rule:evenodd;stroke-linejoin:round;stroke-miterlimit:10;">
    <g id="line">
        <path d="M18.412,36C12.253,31.2 8.952,26.471 10.335,23.565C11.904,20.265 19.028,20.16 28.127,22.764" style="fill:none;fill-rule:nonzero;stroke:white;stroke-width:2px;"/>
        <path d="M54.565,36C60.724,40.8 64.025,45.529 62.642,48.435C61.073,51.735 53.949,51.84 44.838,49.237C42.2,48.481 39.388,47.493 36.494,46.285C35.158,45.739 33.81,45.146 32.45,44.495C30.649,43.635 28.917,42.74 27.279,41.822" style="fill:none;fill-rule:nonzero;stroke:white;stroke-width:2px;"/>
        <path d="M44.092,53C42.392,60.251 39.618,64.96 36.483,64.96C32.834,64.96 29.673,58.58 28.127,49.237L27.643,46.891" style="fill:none;fill-rule:nonzero;stroke:white;stroke-width:2px;stroke-linecap:round;"/>
        <path d="M28.927,18.79C30.636,11.658 33.378,7.04 36.483,7.04C40.132,7.04 43.281,13.42 44.838,22.764" style="fill:none;fill-rule:nonzero;stroke:white;stroke-width:2px;stroke-linecap:round;"/>
        <path d="M28.127,22.764C30.777,23.519 33.589,24.507 36.494,25.715" style="fill:none;fill-rule:nonzero;stroke:white;stroke-width:2px;"/>
        <path d="M44.838,49.236C42.2,48.481 39.388,47.493 36.494,46.285C35.158,45.738 33.81,45.146 32.45,44.495C30.649,43.635 28.917,42.74 27.279,41.822" style="fill:none;fill-rule:nonzero;stroke:white;stroke-width:2px;"/>
        <path d="M45.868,34.35C45.879,34.896 45.884,35.446 45.884,36C45.884,37.999 45.814,39.951 45.687,41.834C45.633,42.691 45.566,43.534 45.486,44.362" style="fill:none;fill-rule:nonzero;stroke:white;stroke-width:2px;stroke-linecap:round;"/>
        <path d="M23.718,50.317C16.781,51.711 11.64,51.171 10.335,48.435C9.229,46.112 11.118,42.623 15.066,38.864" style="fill:none;fill-rule:nonzero;stroke:white;stroke-width:2px;stroke-linecap:round;"/>
        <path d="M27.134,41.741C23.845,39.894 20.897,37.947 18.412,36" style="fill:none;fill-rule:nonzero;stroke:white;stroke-width:2px;"/>
        <path d="M27.279,41.822C27.23,41.795 27.182,41.768 27.134,41.741" style="fill:none;fill-rule:nonzero;stroke:white;stroke-width:2px;"/>
        <path d="M44.838,22.764C44.976,23.567 45.101,24.394 45.213,25.241" style="fill:none;fill-rule:nonzero;stroke:white;stroke-width:2px;stroke-linecap:round;"/>
        <path d="M49.131,21.706C56.129,20.28 61.329,20.804 62.642,23.565C63.706,25.8 61.998,29.115 58.35,32.71" style="fill:none;fill-rule:nonzero;stroke:white;stroke-width:2px;stroke-linecap:round;"/>
        <path d="M54.565,36C52.043,34.036 49.045,32.06 45.687,30.178" style="fill:none;fill-rule:nonzero;stroke:white;stroke-width:2px;stroke-linecap:round;"/>
        <path d="M45.687,30.178C49.045,32.06 52.043,34.036 54.565,36" style="fill:none;fill-rule:nonzero;stroke:white;stroke-width:2px;"/>
        <path d="M41.666,43.947C41.384,44.087 41.098,44.226 40.808,44.362" style="fill:none;fill-rule:nonzero;stroke:white;stroke-width:2px;stroke-linecap:round;"/>
        <path d="M36.494,25.715C37.819,26.273 39.167,26.866 40.527,27.517C42.328,28.365 44.048,29.26 45.686,30.178" style="fill:none;fill-rule:nonzero;stroke:white;stroke-width:2px;"/>
        <path d="M27.09,36.722C27.084,36.168 27.081,35.61 27.081,35.048C27.081,32.396 27.151,29.792 27.279,27.295" style="fill:none;fill-rule:nonzero;stroke:white;stroke-width:2px;stroke-linecap:round;"/>
        <path d="M36.494,46.285C35.158,45.738 33.81,45.146 32.45,44.495C30.649,43.635 28.917,42.74 27.279,41.822" style="fill:none;fill-rule:nonzero;stroke:white;stroke-width:2px;"/>
        <circle cx="36.826" cy="36.327" r="3.263" style="fill:none;stroke:white;stroke-width:2px;stroke-linejoin:miter;"/>
        <path d="M31.61,48.364C31.61,48.364 31.948,48.303 32.581,48.035" style="fill:none;fill-rule:nonzero;stroke:white;stroke-width:2px;stroke-linecap:round;"/>
        <path d="M49.702,39.967C49.702,39.967 51.106,39.07 51.348,38.864" style="fill:none;fill-rule:nonzero;stroke:white;stroke-width:2px;stroke-linecap:round;"/>
        <path d="M31.707,27.295C31.424,27.438 31.141,27.586 30.858,27.739" style="fill:none;fill-rule:nonzero;stroke:white;stroke-width:2px;stroke-linecap:round;"/>
        <path d="M22.221,32.767C22.221,32.767 22.449,32.529 23.036,32.178" style="fill:none;fill-rule:nonzero;stroke:white;stroke-width:2px;stroke-linecap:round;"/>
        <path d="M39.753,23.202C39.753,23.202 41.367,22.612 41.697,22.541" style="fill:none;fill-rule:nonzero;stroke:white;stroke-width:2px;stroke-linecap:round;"/>
    </g>
</svg>
