<?xml version="1.0" encoding="UTF-8" standalone="no"?>
<!DOCTYPE svg PUBLIC "-//W3C//DTD SVG 1.1//EN" "http://www.w3.org/Graphics/SVG/1.1/DTD/svg11.dtd">
<svg width="100%" height="100%" viewBox="0 0 50 50" version="1.1" xmlns="http://www.w3.org/2000/svg" xmlns:xlink="http://www.w3.org/1999/xlink" xml:space="preserve" xmlns:serif="http://www.serif.com/" style="fill-rule:evenodd;clip-rule:evenodd;stroke-linejoin:round;stroke-miterlimit:2;">
    <circle cx="25" cy="25" r="25" style="fill-opacity:0.1;"/>
    <g transform="matrix(0.8,0,0,0.617128,5,9.65762)">
        <g transform="matrix(0.154867,-0.200758,0.154867,0.200758,-22.8725,20.0924)">
            <path d="M140.184,169.372L113.21,169.372C112.287,169.372 111.439,168.863 111.004,168.049C110.57,167.235 110.619,166.248 111.133,165.481C112.479,163.471 113.263,161.056 113.263,158.459C113.263,151.481 107.598,145.816 100.62,145.816C93.642,145.816 87.977,151.481 87.977,158.459C87.977,161.056 88.761,163.471 90.107,165.481C90.621,166.248 90.67,167.235 90.235,168.049C89.801,168.863 88.953,169.372 88.03,169.372L61.056,169.372L61.056,231.378C61.056,240.834 68.722,248.5 78.178,248.5L140.184,248.5L140.184,225.561C138.335,226.22 136.344,226.579 134.271,226.579C124.534,226.579 116.628,218.673 116.628,208.936C116.628,199.199 124.534,191.293 134.271,191.293C136.344,191.293 138.335,191.652 140.184,192.311L140.184,169.372Z" style="fill:rgb(255,193,87);"/>
        </g>
        <g transform="matrix(0.154867,-0.200758,0.154867,0.200758,-22.8725,20.0924)">
            <path d="M224.312,169.372L197.338,169.372C196.415,169.372 195.567,168.863 195.132,168.049C194.698,167.235 194.747,166.248 195.261,165.481C196.607,163.471 197.391,161.056 197.391,158.459C197.391,151.481 191.726,145.816 184.748,145.816C177.77,145.816 172.105,151.481 172.105,158.459C172.105,161.056 172.889,163.471 174.235,165.481C174.749,166.248 174.798,167.235 174.363,168.049C173.929,168.863 173.081,169.372 172.158,169.372L145.184,169.372L145.184,196.346C145.184,197.269 144.675,198.117 143.861,198.552C143.047,198.986 142.059,198.937 141.293,198.423C139.283,197.077 136.868,196.293 134.271,196.293C127.293,196.293 121.628,201.958 121.628,208.936C121.628,215.914 127.293,221.579 134.271,221.579C136.868,221.579 139.283,220.795 141.293,219.449C142.059,218.935 143.047,218.886 143.861,219.32C144.675,219.755 145.184,220.603 145.184,221.526L145.184,248.5L207.19,248.5C211.731,248.5 216.086,246.696 219.297,243.485C222.508,240.274 224.312,235.919 224.312,231.378L224.312,169.372Z" style="fill:rgb(13,69,104);"/>
        </g>
        <g transform="matrix(0.154867,-0.200758,0.154867,0.200758,-36.0359,3.02833)">
            <path d="M140.184,169.372L78.178,169.372C73.637,169.372 69.282,171.176 66.071,174.387C62.86,177.598 61.056,181.953 61.056,186.494L61.056,248.5L83.994,248.5C83.335,246.651 82.977,244.661 82.977,242.587C82.977,232.85 90.882,224.944 100.62,224.944C110.357,224.944 118.263,232.85 118.263,242.587C118.263,244.661 117.904,246.651 117.245,248.5L140.184,248.5L140.184,225.561C138.335,226.22 136.344,226.579 134.271,226.579C124.534,226.579 116.628,218.673 116.628,208.936C116.628,199.199 124.534,191.293 134.271,191.293C136.344,191.293 138.335,191.652 140.184,192.311L140.184,169.372Z" style="fill:rgb(255,193,87);"/>
        </g>
        <g transform="matrix(0.154867,-0.200758,0.154867,0.200758,-36.0359,3.02833)">
            <path d="M224.312,186.494C224.312,177.038 216.646,169.372 207.19,169.372L145.184,169.372L145.184,196.346C145.184,197.269 144.675,198.117 143.861,198.552C143.047,198.986 142.059,198.937 141.293,198.423C139.283,197.077 136.868,196.293 134.271,196.293C127.293,196.293 121.628,201.958 121.628,208.936C121.628,215.914 127.293,221.579 134.271,221.579C136.868,221.579 139.283,220.795 141.293,219.449C142.059,218.935 143.047,218.886 143.861,219.32C144.675,219.755 145.184,220.603 145.184,221.526L145.184,248.5L168.122,248.5C167.463,246.651 167.105,244.661 167.105,242.587C167.105,232.85 175.01,224.944 184.748,224.944C194.485,224.944 202.391,232.85 202.391,242.587C202.391,244.661 202.032,246.651 201.373,248.5L224.312,248.5L224.312,186.494Z" style="fill:rgb(255,193,87);"/>
        </g>
    </g>
</svg>
