<?xml version="1.0" encoding="UTF-8" standalone="no"?>
<!DOCTYPE svg PUBLIC "-//W3C//DTD SVG 1.1//EN" "http://www.w3.org/Graphics/SVG/1.1/DTD/svg11.dtd">
<svg width="100%" height="100%" viewBox="0 0 50 50" version="1.1" xmlns="http://www.w3.org/2000/svg" xmlns:xlink="http://www.w3.org/1999/xlink" xml:space="preserve" xmlns:serif="http://www.serif.com/" style="fill-rule:evenodd;clip-rule:evenodd;stroke-linejoin:round;stroke-miterlimit:2;">
    <circle cx="25" cy="25" r="25" style="fill-opacity:0.1;"/>
    <g transform="matrix(0.8,0,0,0.617128,5,9.65762)">
        <g transform="matrix(1,0,0,1,0,-1)">
            <rect x="5" y="13" width="20" height="32" style="fill:rgb(44,102,138);"/>
        </g>
        <g transform="matrix(1,0,0,1,1,0)">
            <path d="M24,44L9,37.824L9,5.824L24,12L24,44Z" style="fill:rgb(251,209,137);"/>
        </g>
        <g transform="matrix(-1,0,0,1,50,-1)">
            <rect x="5" y="13" width="20" height="32" style="fill:rgb(13,69,104);"/>
        </g>
        <g transform="matrix(-1,0,0,1,49,0)">
            <path d="M24,44L9,37.824L9,5.824L24,12L24,44Z" style="fill:rgb(255,193,87);"/>
        </g>
    </g>
</svg>
